<?xml version="1.0" encoding="utf-8"?>
<!-- Generator: Adobe Illustrator 23.0.1, SVG Export Plug-In . SVG Version: 6.00 Build 0)  -->
<svg version="1.1" id="Layer_1" xmlns="http://www.w3.org/2000/svg" xmlns:xlink="http://www.w3.org/1999/xlink" x="0px" y="0px"
	 width="792.5px" height="202.6px" viewBox="0 0 792.5 202.6" style="enable-background:new 0 0 792.5 202.6;" xml:space="preserve"
	>
<style type="text/css">
	.st0{fill:#00A9FA;}
	.st1{fill:#33475B;}
</style>
<g>
	<path class="st0" d="M90.3,202.6c-3,0-6-0.8-8.7-2.3L8.7,158.1c-5.4-3.1-8.7-8.8-8.7-15V58.8c0-6.2,3.3-12,8.7-15.1L79.5,2.9
		c6.7-3.9,15-3.9,21.7,0L172,43.8c5.4,3.1,8.7,8.9,8.7,15.1v84.2c0,6.2-3.3,12-8.7,15.1l-72.9,42.1
		C96.4,201.8,93.4,202.6,90.3,202.6z M90.3,10c-2,0-4,0.5-5.9,1.6L13.7,52.4c-2.3,1.3-3.7,3.8-3.7,6.4V143c0,2.6,1.4,5.1,3.7,6.4
		l72.9,42.1c2.3,1.3,5.1,1.3,7.4,0l72.9-42.1c2.3-1.3,3.7-3.8,3.7-6.4V58.8c0-2.6-1.4-5.1-3.7-6.4L96.2,11.6
		C94.4,10.5,92.4,10,90.3,10z"/>
	<g>
		<path class="st0" d="M140.8,64.2v41.6c0,17.5-14.2,31.7-31.7,31.7c-6.2,0-12-1.8-16.9-4.9c-4.1-2.6-7.5-6.1-10-10.2
			c-3-4.8-4.7-10.5-4.7-16.6V64.2h27.8v41.6c0,5.6-1.5,11.1-4.3,15.9c-2.9-2-5.4-4.4-7.5-7.3c1.2-2.7,1.8-5.7,1.8-8.7V74.2h-7.8
			v31.6c0,3.8,1,7.3,2.7,10.4c0.3,0.6,0.7,1.1,1,1.7c2.2,3.2,5.2,5.9,8.7,7.5c0.4,0.2,0.8,0.4,1.2,0.5c2.5,1,5.3,1.6,8.1,1.6
			c12,0,21.7-9.7,21.7-21.7V74.2h-8.3v-10H140.8z"/>
		<path class="st0" d="M87.4,134.3c-4.3,2.1-9.1,3.2-13.9,3.2c-17.5,0-31.7-14.2-31.7-31.7V64.2H60v10h-8.3v31.6
			c0,12,9.7,21.7,21.7,21.7c2.3,0,4.6-0.4,6.8-1.1C82.2,129.4,84.6,132.1,87.4,134.3z"/>
	</g>
</g>
<g>
	<path class="st1" d="M295.7,64.2v45.6c0,9.7-7.9,17.6-17.6,17.6c-9.1,0-16.7-6.8-17.5-15.9l0,0c0-0.6,0.1-1.1,0.1-1.7V64.2h-10
		v45.6c0,9.7-7.9,17.6-17.6,17.6s-17.6-7.9-17.6-17.6V64.2h-10v45.6c0,15.2,12.4,27.6,27.6,27.6c9.3,0,17.5-4.6,22.5-11.6
		c5,7.1,13.3,11.6,22.6,11.6c15.2,0,27.6-12.4,27.6-27.6V64.2H295.7z"/>
	<path class="st1" d="M428.6,137.5h-27.8V24.4h10v39.8h17.8c16.1,0,29.2,13.1,29.2,29.2v14.8c0,7.8-3,15.2-8.6,20.7
		C443.7,134.4,436.4,137.5,428.6,137.5z M410.8,127.5h17.8c5.1,0,10-2,13.6-5.6s5.6-8.5,5.6-13.6V93.5c0-10.6-8.6-19.2-19.2-19.2
		h-17.8V127.5z"/>
	<path class="st1" d="M719.8,64.2v45.6c0,9.7-7.9,17.6-17.6,17.6s-17.6-7.9-17.6-17.6V64.2h-10v45.6c0,0.6,0,1.1,0.1,1.7l0,0
		c-0.9,9.1-8.4,15.9-17.5,15.9c-9.7,0-17.6-7.9-17.6-17.6V64.2h-10v45.6c0,15.2,12.4,27.6,27.6,27.6c9.3,0,17.6-4.5,22.6-11.6
		c5,7,13.2,11.6,22.5,11.6c15.2,0,27.6-12.4,27.6-27.6V64.2H719.8z"/>
	<path class="st1" d="M534.4,137.6h-27.8c-7.8,0-15.2-3-20.7-8.6c-5.5-5.5-8.6-12.9-8.6-20.7V93.5c0-16.1,13.1-29.2,29.2-29.2h17.8
		V24.4h10L534.4,137.6L534.4,137.6z M524.4,74.2h-17.8c-10.6,0-19.2,8.6-19.2,19.2v14.8c0,5.1,2,10,5.6,13.6s8.5,5.6,13.6,5.6h17.8
		V74.2z"/>
	<path class="st1" d="M616,95.7c0-17.4-14.2-31.5-31.5-31.5c-17.4,0-31.5,14.2-31.5,31.5v5.1l0,0v5.1c0,17.4,14.2,31.5,31.6,31.5
		c13.4,0,24.9-8.4,29.4-20.2h-12.2c-3.7,5.6-10,9.3-17.3,9.3c-11.2,0-20.4-9-20.6-20.2H616V95.7z M563.8,95.5
		c0.1-11.3,9.4-20.4,20.6-20.4c11.3,0,20.5,9.1,20.6,20.4H563.8z"/>
	<path class="st1" d="M383.3,95.7c0-17.4-14.2-31.5-31.5-31.5c-17.4,0-31.5,14.2-31.5,31.5v5.1l0,0v5.1c0,17.4,14.2,31.5,31.6,31.5
		c13.4,0,24.9-8.4,29.4-20.2H369c-3.7,5.6-10,9.3-17.3,9.3c-11.2,0-20.4-9-20.6-20.2h52.2L383.3,95.7L383.3,95.7z M331.1,95.5
		c0.1-11.3,9.4-20.4,20.6-20.4s20.5,9.1,20.6,20.4H331.1z"/>
</g>
<g>
	<path class="st1" d="M771.3,85.7c-11.5,0-20.8-9.3-20.8-20.8c0-11.6,9.3-20.8,20.8-20.8c11.6,0,20.8,9.2,20.8,20.8
		C792.1,76.4,782.9,85.7,771.3,85.7z M771.3,47.5c-9.6,0-17.4,7.7-17.4,17.4c0,9.5,7.8,17.4,17.4,17.4c9.6,0,17.4-7.9,17.4-17.4
		C788.7,55.2,780.9,47.5,771.3,47.5z M776.9,76.8l-6.2-9.4h-3.8v9.4h-3.6V53h9.7c4,0,8,2.8,8,7.3c0,5.3-4.7,7.1-6.1,7.1l6.4,9.5
		H776.9z M773,56h-6.1v8.2h6.1c2.1,0,4.3-1.6,4.3-4C777.3,57.6,775,56,773,56z"/>
</g>
</svg>
